<svg xmlns="http://www.w3.org/2000/svg" version="1.1" viewBox="-5.0 -10.0 110.0 135.0">
 <path d="m48.551 3.1289c1.7539-0.70703 3.5742-1.2383 5.4336-1.582 1.0156-0.046875 2.0234 0.23828 2.8672 0.80469 0.52344 0.4375 0.96484 0.95703 1.3164 1.543 1.9961 3.0508 3.9336 6.1367 5.9102 9.2031v-0.003906c0.55859 0.77734 1.0781 1.5781 1.5586 2.4062 0.65234 1.332 0.47656 2.9219-0.45312 4.0781-0.92578 0.94922-2.1016 1.6172-3.3906 1.9297 0.64062-1.0859 0.81641-2.3867 0.49219-3.6055-0.19141-0.52734-0.42969-1.0352-0.71484-1.5195-1.3281-2.4062-2.75-4.7578-4.1133-7.1445h0.003907c-0.33203-0.69141-0.87109-1.2617-1.543-1.6328-0.97266-0.36719-2.0625 0.10156-2.4648 1.0625-0.29297 0.74609-0.19922 1.5859 0.24609 2.25 1.1445 2.0234 2.3047 4.0352 3.4961 6.0312 0.40234 0.62109 0.73828 1.2812 1.0039 1.9688 0.22266 0.76953-0.03125 1.5977-0.65234 2.1016-0.69531 0.46875-1.4531 0.84375-2.2461 1.1094-0.66016 0.23828-1.2773 0.58594-1.9609 0.76172 0.82422-1.0859 1.0898-2.4922 0.72656-3.8047-0.73828-1.8164-1.7891-3.4766-2.6641-5.2227-0.37109-0.85156-0.88672-1.6328-1.5234-2.3086-0.73047-0.58594-1.7656-0.59766-2.5078-0.03125-0.75781 0.625-0.99609 1.6914-0.56641 2.5742 0.83984 1.7734 2.0039 3.375 2.875 5.1289v0.003907c0.19141 0.41016 0.19531 0.88672 0.015624 1.3008-0.17969 0.41797-0.53125 0.73828-0.96094 0.88281-2.6641 0.91797-5.2891 1.9531-7.9414 2.9023-0.83203 0.25781-1.7109 0.32031-2.5664 0.18359-0.85937-0.35156-1.8047-0.43359-2.707-0.23438-1.2031 0.54688-2.082 1.6211-2.375 2.9062-0.83984 2.4766-0.26562 5.1094-0.16016 7.6445 0.14453 2.7109 0.32422 5.4219 0.67578 8.1172 0.31641 2.7422 0.60156 5.4844 0.94922 8.2227l0.003906 0.003906c0.45312 2.8398 0.58594 5.7266 0.39062 8.5977-0.14062 2.7734-1.0078 5.4609-2.5195 7.7891-1.4805 2.3203-3.7227 4.0508-6.3438 4.8945-0.73438 0.097656-1.3945 0.49609-1.8242 1.1016-0.32812 0.59766-0.37891 1.3086-0.13281 1.9453 0.24219 0.63672 0.75391 1.1328 1.3984 1.3594 0.53516 0.12891 1.0977 0.074219 1.5977-0.15234 1.5469-0.66016 3.0352-1.4414 4.457-2.3398 2.4219-1.707 4.3359-4.0352 5.5391-6.7422 0.65625-1.3867 1.1367-2.8516 1.4336-4.3594 0.32812-1.5195 0.52344-3.0664 0.57812-4.6211 1.3047-1.3516 2.7148-2.6016 4.2109-3.7383 2.3047-1.4688 4.8711-2.4844 7.5586-2.9922 3.6406-0.58203 7.375-0.097656 10.75 1.3984 2.5039 1.1797 4.7812 2.7891 6.7266 4.7617 2.0508 2.0664 3.7266 4.4766 4.9492 7.1211 0.23828 0.82031 0.82031 1.4922 1.5977 1.8438 0.55078 0.16406 1.1484 0.089844 1.6406-0.21094 0.49219-0.30078 0.83203-0.79688 0.9375-1.3633 0.035156-1.0039-0.24219-1.9961-0.79688-2.8359-1.4414-2.8711-3.3242-5.4961-5.582-7.7773-1.2383-1.1836-2.5781-2.2578-4.0039-3.2109 4.0859-4.6992 9.4531-8.1055 15.441-9.8125v0.003906c1.7734-0.48047 3.5781-0.82031 5.4023-1.0156 0.86328-0.16797 1.7578-0.027344 2.5312 0.38672 0.53516 0.40234 0.81641 1.0547 0.75 1.7148 0.042969 17.711-0.007812 35.426 0.015625 53.137v0.003906c0.058594 0.5625-0.089844 1.1289-0.41406 1.5938-0.53516 0.57422-1.3047 0.875-2.0859 0.8125-0.82422-0.19141-1.5977-0.55859-2.2656-1.082-1.4492-0.96094-2.7734-2.1016-3.9414-3.3945-1.6484-1.7539-3.0352-3.7305-4.1211-5.8789-1.1641-2.3672-1.9961-4.8828-2.4648-7.4805-0.19531-0.98438 0.011718-2.1055-0.65625-2.9453v0.003906c-0.36719-0.51172-0.95313-0.82031-1.5859-0.82812-0.62891-0.003906-1.2227 0.28906-1.6016 0.79297-0.51172 0.95703-0.62109 2.082-0.30078 3.1211 0.29688 2.8359 1.1172 5.5977 2.418 8.1367-1.3047 0.84375-2.6953 1.5469-4.1484 2.1016-4.7461 1.9648-9.7578 3.2031-14.871 3.6797-4.4414 0.42187-8.9141 0.33984-13.336-0.24219-9.2852-1.4375-18.402-3.7852-27.23-7-2.3672-0.84375-4.2305-2.7031-5.0859-5.0625-0.58984-1.7109 0.03125-3.5078-0.14062-5.2578-0.13672-1.2266-0.35938-2.4375-0.48047-3.6641-0.47266-4.1172-0.42578-8.2812 0.13672-12.387 0.23047-2.0391 0.58594-4.0664 1.0586-6.0664 0.71094-3.2539 1.6094-6.4688 2.6992-9.6172 1.1289-3.6133 2.4492-7.1641 3.7031-10.734 0.91016-2.7227 2.0078-5.3789 2.9727-8.082 1.2578-3.3359 2.5156-6.6758 3.8008-10h-0.003906c0.51172-1.5742 1.293-3.0469 2.3047-4.3555 1.043-1.2422 2.3711-2.2109 3.8711-2.8242 1.3477-0.51172 2.75-0.87109 4.1094-1.3555 3.3438-1.1562 6.7266-2.207 10.074-3.3516 1.6172-0.48438 3.1953-1.0898 4.8203-1.5508m11.398 62.648c-1.0664 1.0508-2.2148 2.0156-3.4375 2.8828-3.7188 2.2656-8.2227 2.8555-12.395 1.6211-0.58984-0.24609-1.2422-0.30078-1.8633-0.15625-0.54688 0.21484-0.98438 0.64062-1.2109 1.1836-0.22656 0.53906-0.22656 1.1523 0 1.6914 0.32031 0.60938 0.88281 1.0508 1.5469 1.2227 2.875 0.89453 5.9141 1.1289 8.8906 0.6875 3.6094-0.48438 6.9961-2.0273 9.7344-4.4297 0.64453-0.52734 1.2109-1.1406 1.6836-1.8203 0.40234-0.63672 0.39844-1.4453-0.003907-2.0781-0.60938-1.0117-1.9023-1.3672-2.9453-0.80469z"/>
 <path d="m58.297 25.43c0.60547-0.21094 1.125-0.61328 1.7461-0.78125v-0.003907c0.51562 1.1211 0.55469 2.4023 0.10938 3.5547-0.85938 1.9492-2.918 3.0859-5.0273 2.7734-1.168-0.1875-2.2383-0.71484-3.3789-1.0117-2.082-0.62891-4.1875-1.1602-6.3203-1.5898-0.75391-0.15234-1.5312-0.19141-2.2812-0.375 2.4609-0.90625 4.8672-1.9492 7.3555-2.7773 0.79297 1.1172 2.0742 1.7852 3.4453 1.8008 1.5078-0.35156 2.9727-0.88672 4.3516-1.5898z"/>
</svg>