<svg xmlns="http://www.w3.org/2000/svg" version="1.1" viewBox="-5.0 -10.0 110.0 135.0">
 <path d="m98.484 79.75h-6.875v-32.641h-0.9375v-28.375c0-0.84375-0.67188-1.5156-1.5156-1.5156h-78.312c-0.84375 0-1.5156 0.67188-1.5156 1.5156v28.375h-0.9375v32.641h-6.875c-0.84375 0-1.5156 0.6875-1.5156 1.5156 0 0.84375 0.67188 1.5156 1.5156 1.5156h34.578c0.82812 0 1.5156-0.67188 1.5156-1.5156 0-0.82812-0.6875-1.5156-1.5156-1.5156h-3.7031v-17.297c0.046875 0.14062 0.09375 0.26562 0.17188 0.375 0.28125 0.45312 0.76562 0.71875 1.2812 0.71875h7.4219c0.53125 0 1.0156-0.26562 1.2812-0.71875 0.28125-0.4375 0.3125-1 0.078125-1.4688l-3.5469-7.0625v-22.609c0-2.5625-2.0781-4.6406-4.6406-4.6406h-2.0469v-6.7969h35.219v6.7969h-2.0469c-2.5625 0-4.6406 2.0781-4.6406 4.6406v22.609l-3.5469 7.0625c-0.23438 0.46875-0.20312 1.0312 0.078125 1.4688 0.26562 0.45312 0.75 0.71875 1.2812 0.71875h7.4219c0.51562 0 1-0.26562 1.2812-0.71875 0.078125-0.10938 0.125-0.23438 0.17188-0.375v17.297h-3.7031c-0.82812 0-1.5156 0.6875-1.5156 1.5156 0 0.84375 0.6875 1.5156 1.5156 1.5156h34.578c0.84375 0 1.5156-0.67188 1.5156-1.5156 0-0.82812-0.67188-1.5156-1.5156-1.5156zm-86.125-59.5h4.5312v26.859h-4.5312zm4.0312 54.859h-3.9062c-0.4375 0-0.78125-0.34375-0.78125-0.78125 0-0.42188 0.34375-0.78125 0.78125-0.78125h3.8906c0.42188 0 0.78125 0.35938 0.78125 0.78125 0.015625 0.4375-0.34375 0.78125-0.76562 0.78125zm0-7.2656h-3.9062c-0.4375 0-0.78125-0.34375-0.78125-0.78125 0-0.42188 0.34375-0.78125 0.78125-0.78125h3.8906c0.42188 0 0.78125 0.35938 0.78125 0.78125 0.015625 0.4375-0.34375 0.78125-0.76562 0.78125zm0-7.2656h-3.9062c-0.4375 0-0.78125-0.34375-0.78125-0.78125 0-0.42188 0.34375-0.78125 0.78125-0.78125h3.8906c0.42188 0 0.78125 0.35938 0.78125 0.78125 0.015625 0.4375-0.34375 0.78125-0.76562 0.78125zm0-7.2656h-3.9062c-0.4375 0-0.78125-0.34375-0.78125-0.78125 0-0.42188 0.34375-0.78125 0.78125-0.78125h3.8906c0.42188 0 0.78125 0.35938 0.78125 0.78125 0.015625 0.4375-0.34375 0.78125-0.76562 0.78125zm12.969 26.438h-8.875v-32.641h-0.5625v-26.859h9.4375zm6.6875-43.141v17.656l-3.5469 7.0938c-0.046875 0.09375-0.078125 0.1875-0.10938 0.29688v-25.047zm31.562 25.047c-0.03125-0.10938-0.0625-0.20312-0.10938-0.29688l-3.5469-7.0938v-17.656h3.6562zm15.5-41.406h4.5312v26.859h-4.5312zm-3.0312 26.859h-0.5625v32.641h-8.875v-59.5h9.4375zm7.4375 28h-3.8906c-0.42188 0-0.78125-0.34375-0.78125-0.78125 0-0.42188 0.35938-0.78125 0.78125-0.78125h3.8906c0.4375 0 0.78125 0.35938 0.78125 0.78125 0 0.4375-0.34375 0.78125-0.78125 0.78125zm0-7.2656h-3.8906c-0.42188 0-0.78125-0.34375-0.78125-0.78125 0-0.42188 0.35938-0.78125 0.78125-0.78125h3.8906c0.4375 0 0.78125 0.35938 0.78125 0.78125 0 0.4375-0.34375 0.78125-0.78125 0.78125zm0-7.2656h-3.8906c-0.42188 0-0.78125-0.34375-0.78125-0.78125 0-0.42188 0.35938-0.78125 0.78125-0.78125h3.8906c0.4375 0 0.78125 0.35938 0.78125 0.78125 0 0.4375-0.34375 0.78125-0.78125 0.78125zm0-7.2656h-3.8906c-0.42188 0-0.78125-0.34375-0.78125-0.78125 0-0.42188 0.35938-0.78125 0.78125-0.78125h3.8906c0.4375 0 0.78125 0.35938 0.78125 0.78125 0 0.4375-0.34375 0.78125-0.78125 0.78125z"/>
</svg>