<svg xmlns="http://www.w3.org/2000/svg" xmlns:xlink="http://www.w3.org/1999/xlink" version="1.1" x="0px" y="0px" viewBox="0 0 218.026 354.48875" style="enable-background:new 0 0 218.026 283.591;" xml:space="preserve"><g><path d="M115.409,170.388l-8.505-20.011H93.557c-0.474,3.175-1.021,6.511-1.656,9.969c-1.727,9.484-4.149,19.855-7.39,30.123   c9.16-3.023,18.627-5.377,27.919-6.887C113.561,179.078,114.544,174.665,115.409,170.388z"/><path d="M101.091,133.101c-1.955-0.902-3.667-2.061-5.15-3.454c-0.088,1.105-0.19,2.295-0.308,3.568h5.648   C101.219,133.176,101.154,133.142,101.091,133.101z"/><path d="M182.638,95.343c-0.558,0-1.091-0.024-1.641-0.031c0,0.043-0.003,0.084-0.003,0.127   c-0.002,6.467,1.248,13.565,4.232,21.133c3.101,7.88,4.422,15.325,4.424,22.408c-0.002,12.146-3.912,23.338-9.977,33.472   c-3.523,5.891-7.786,11.383-12.363,16.411c3.039,1.594,5.857,3.441,8.433,5.564c4.555-5.124,8.846-10.73,12.507-16.835   c6.761-11.271,11.401-24.276,11.401-38.611c0.002-8.337-1.579-17.087-5.121-26.074c-2.551-6.482-3.533-12.277-3.536-17.466   c0-0.121,0.008-0.236,0.009-0.356c-2.783,0.171-5.562,0.26-8.261,0.26H182.638z"/><path d="M125.3,172.677c0.897-1.335,1.691-2.595,2.438-3.817l-8.668-20.395l-0.037-0.086h0.048h14.531   c0.632,0,1.23-0.139,1.773-0.38c-0.151-2.614-0.752-3.597-2.077-5.128c-1.468-1.599-4.354-3.29-7.686-4.476   c-1.709-0.633-3.504-1.122-5.224-1.508c-1.986-0.446-3.872-0.751-5.389-0.949c-0.78-0.043-1.599-0.102-2.458-0.178   c-0.95-0.078-1.884-0.18-2.769-0.298c-0.246-0.01-0.449-0.017-0.589-0.02l-0.223,0.003c-0.852,0-1.696-0.084-2.527-0.232H95.441   h-4.069c-2.423,0-4.389,1.965-4.389,4.389v4.389c0,2.423,1.965,4.388,4.389,4.388h2.477h14.378l7.868,18.513l7.031,16.543   C122.44,179.829,123.105,175.964,125.3,172.677z"/><path d="M15,283.591c8.284,0,15-6.716,15-15c0-2.61-0.669-5.064-1.842-7.201l5.499-5.499   c31.841,14.278,120.04,13.953,149.817-0.893l6.393,6.393c-1.172,2.139-1.842,4.591-1.842,7.201c0,8.284,6.716,15,15.001,15   c8.284,0,15-6.716,15-15c0-8.284-6.716-15-15-15c-0.95,0-1.876,0.098-2.777,0.268l-7.342-7.343   c0.353-0.921,0.539-1.873,0.539-2.857c0-18.222-5.061-36.27-19.054-47.731c-2.532-2.074-5.354-3.934-8.494-5.537   c-4.189-2.139-8.95-3.816-14.318-4.961c-0.694,1.106-1.408,2.223-2.162,3.355c-2.7,4.04-7.211,6.448-12.07,6.448   c-2.864,0-5.648-0.846-8.047-2.444c-3.122-2.088-5.157-5.189-5.994-8.576c-3.736,0.342-7.56,0.852-11.428,1.512   c-9.314,1.587-18.889,4.057-28.161,7.216c-32.755,11.162-61.694,30.932-61.694,50.843c0,1.574,0.472,3.064,1.354,4.474   l-5.602,5.603c-0.9-0.17-1.826-0.268-2.776-0.268c-8.284,0-15,6.716-15,15C0,276.875,6.716,283.591,15,283.591z M121.033,227.134   c0,6.074-4.925,11-11,11c-6.075,0-11-4.926-11-11c0-6.076,4.925-11,11-11c1.379,0,2.694,0.265,3.911,0.729l-6.873,7.584   c-1.484,1.639-1.359,4.167,0.276,5.651c0.766,0.692,1.728,1.034,2.685,1.034c1.09,0,2.176-0.442,2.967-1.314l6.874-7.584   C120.608,223.711,121.033,225.371,121.033,227.134z M107.228,201.505c0.921-0.1,1.856-0.154,2.805-0.154   c5.222,0,10.079,1.558,14.139,4.227l-2.235,2.465c-3.453-2.158-7.532-3.409-11.904-3.409c-1.37,0-2.708,0.129-4.01,0.363   c-10.512,1.893-18.49,11.08-18.49,22.138c0,3.877,0.981,7.525,2.707,10.71c3.808,7.023,11.243,11.791,19.793,11.791   c11.815,0,21.496-9.108,22.421-20.688c0.048-0.599,0.079-1.202,0.079-1.813c0-3.118-0.635-6.088-1.781-8.788   c-0.752-1.771-1.729-3.425-2.889-4.929l2.236-2.467c1.387,1.718,2.556,3.617,3.469,5.657c1.42,3.17,2.222,6.675,2.244,10.367   c0,0.054,0.004,0.105,0.004,0.159c0,14.24-11.543,25.783-25.783,25.783c-9.604,0-17.976-5.255-22.412-13.043   c-2.142-3.759-3.371-8.104-3.371-12.74C84.25,213.843,94.308,202.903,107.228,201.505z"/><ellipse transform="matrix(0.3204 -0.9473 0.9473 0.3204 76.7887 152.0406)" cx="144.363" cy="22.5" rx="22.494" ry="22.495"/><path d="M91.217,113.947c0.568,5.998,2.395,10.147,4.923,13.05c1.708,1.96,3.733,3.358,5.919,4.349   c1.416,0.942,2.962,1.561,4.546,1.869c0.87,0.17,1.75,0.249,2.628,0.23c0.167,0.002,0.423,0.01,0.729,0.023   c0.928,0.127,1.851,0.225,2.756,0.301c0.857,0.072,1.67,0.133,2.44,0.172c1.654,0.215,3.516,0.516,5.427,0.934   c0.479,0.105,0.961,0.218,1.444,0.338c1.438,0.358,2.88,0.787,4.264,1.299c3.743,1.333,6.841,3.21,8.528,5.05   c1.296,1.5,2.079,2.707,2.414,4.901c0.095,0.622,0.16,1.311,0.183,2.123c0.003,0.167-0.005,0.351-0.009,0.529   c-0.091,3.91-1.852,10.559-7.427,19.91c-0.407,0.683-0.836,1.38-1.284,2.092c-0.549,0.87-1.119,1.755-1.733,2.669   c-3.835,5.74-2.289,13.502,3.448,17.337c2.134,1.425,4.548,2.107,6.936,2.107c4.036,0,7.996-1.949,10.405-5.556   c0.599-0.9,1.177-1.792,1.739-2.677c0.389-0.613,0.758-1.218,1.129-1.823c7.872-12.84,11.736-24.017,11.797-34.589   c0.006-4.978-0.943-9.739-2.718-13.947c-3.114-7.434-8.55-12.775-14.075-16.338c-6.334-4.062-12.93-6.274-18.758-7.628   c0.822-8.751,2.995-17.678,5.328-25.85c0.165-0.58,0.331-1.158,0.497-1.729c-0.885-0.501-1.741-1-2.538-1.49   c-11.269-6.925-16.731-14.062-17.316-14.852c-1.59-2.149-2.244-4.789-1.844-7.43c0.403-2.644,1.808-4.971,3.96-6.555   c1.729-1.274,3.778-1.947,5.924-1.947c0.578,0,1.147,0.067,1.709,0.166c2.493,0.437,4.774,1.795,6.305,3.846   c0.095,0.117,0.222,0.273,0.407,0.484c0.331,0.384,1.008,1.145,2.045,2.147c1.478,1.431,3.821,3.469,7.024,5.638   c0.712,0.482,1.453,0.969,2.252,1.46c11.682,7.143,25.858,10.771,42.121,10.784c0.824,0,1.673-0.022,2.519-0.042   c1.565-0.037,3.148-0.094,4.755-0.195c0.214-0.013,0.429-0.02,0.64-0.02c1.867,0,3.617,0.526,5.121,1.428   c1.13,0.679,2.121,1.568,2.906,2.625c0.021-0.584-0.017-1.179-0.13-1.777c-0.23-1.212-0.729-2.303-1.414-3.235   c0.802-1.308,1.636-2.526,2.476-3.647c2.178-2.903,4.372-5.135,5.988-6.611c0.808-0.739,1.471-1.288,1.916-1.64   c0.221-0.177,0.389-0.304,0.491-0.381c0.052-0.037,0.085-0.063,0.104-0.077c2.258-1.59,2.801-4.707,1.213-6.965   c-1.59-2.26-4.708-2.803-6.966-1.213c-0.285,0.206-5.475,3.875-10.746,10.885c-1.5,1.995-3.004,4.286-4.396,6.841   c-2.995,0.465-5.846,0.688-8.549,0.688c-13.78-0.006-24.306-5.399-31.648-10.965c-3.648-2.774-6.435-5.569-8.264-7.622   c-0.914-1.024-1.591-1.863-2.016-2.415c-0.212-0.276-0.364-0.48-0.452-0.603c-0.034-0.047-0.059-0.081-0.073-0.101   c-0.009-0.013-0.009-0.013-0.009-0.013h-0.001c-0.131-0.192-0.273-0.372-0.418-0.549c-1.45-2.333-3.463-4.133-6.025-5.044   c-8.29-2.949-21.057,0.461-27.492,14.543c-2.242,4.983-4.083,9.536-5.583,13.933C92.348,85.912,90.91,97.324,91.217,113.947z"/><path d="M194.879,78.306c-1.369-0.855-3.003-1.312-4.736-1.202c-1.969,0.125-3.864,0.186-5.721,0.214   c-0.56,0.008-1.131,0.027-1.681,0.027c-20.396-0.017-34.274-5.645-43.167-11.08c-0.533-0.327-1.045-0.653-1.542-0.978   c-3.64-2.381-6.31-4.672-8.08-6.385c-1.004-0.972-1.719-1.755-2.151-2.259c-0.218-0.25-0.364-0.432-0.442-0.529   c-0.042-0.049-0.062-0.078-0.068-0.084h0c-1.358-1.817-3.346-2.887-5.438-3.143c-1.955-0.239-4.002,0.232-5.712,1.491   c-3.558,2.619-4.318,7.63-1.696,11.188v-0.003c0.455,0.614,5.654,7.516,16.76,14.339c0.667,0.41,1.356,0.82,2.066,1.227   c10.803,6.204,26.643,11.909,47.776,12.187c0.533,0.007,1.052,0.028,1.592,0.028c0.036,0,0.067,0,0.103,0   c2.699,0,5.475-0.09,8.33-0.269c0.029-0.001,0.057-0.002,0.086-0.004c4.409-0.279,7.756-4.081,7.477-8.49   c-0.057-0.904-0.27-1.761-0.598-2.553C197.392,80.474,196.278,79.18,194.879,78.306z"/></g>
</svg>