<svg xmlns="http://www.w3.org/2000/svg" version="1.1" viewBox="-5.0 -10.0 110.0 135.0">
 <path d="m96.746 26.461c-3.1562-4.4375-8.2148-10.359-16.031-10.215 2.0938 3.2539 3.4336 6.8438 4.0469 10.941 0.13281 0.89453-0.48438 1.7305-1.3828 1.8633-0.082031 0.011719-0.16406 0.015625-0.24219 0.015625-0.80078 0-1.5-0.58594-1.6211-1.3984-0.56641-3.8047-2.0234-9.3594-7.9609-14.836-1.582-0.35938-3.2812-0.55469-5.0547-0.55469-0.90625 0-1.7969 0.050781-2.6602 0.15234-0.17969-3.2812-0.69531-6.8438-2.3125-9.9805-0.28125-0.54297-0.84375-0.88672-1.457-0.88672h-24.141c-0.61328 0-1.1797 0.34375-1.457 0.89062-1.6094 3.1211-2.125 6.6875-2.3125 9.9805-0.86719-0.10156-1.7539-0.15234-2.6641-0.15234-1.7734 0-3.4727 0.19531-5.0508 0.55469-5.9375 5.4727-7.3945 11.031-7.9648 14.836-0.12109 0.8125-0.82031 1.3984-1.6211 1.3984-0.078125 0-0.16406-0.007812-0.24219-0.015624-0.89453-0.13281-1.5156-0.96875-1.3828-1.8633 0.60938-4.0977 1.9492-7.6875 4.0469-10.941-7.7461-0.14062-12.871 5.7734-16.031 10.215-0.19922 0.27734-0.30469 0.60938-0.30469 0.95312v24.812c0 0.44531 0.17969 0.875 0.50391 1.1797 0.32031 0.30859 0.74609 0.46094 1.2031 0.45703 3.1562-0.125 6.5703-0.36328 9.2969-1.4297-0.25391 7.457 2.5 17.938 6.1602 23.539 0.90625-0.078124 1.8516-0.17969 2.8867-0.33594 7.4609-1.1367 13.078-7.0898 14.203-12.184 0.19531-0.88281 1.0625-1.4453 1.9531-1.25 0.88281 0.19531 1.4453 1.0703 1.25 1.9531-1.582 7.1641-8.8516 13.492-16.91 14.719-0.65234 0.10156-1.2812 0.18359-1.8867 0.25391v17.672c0 0.90625 0.73438 1.6406 1.6406 1.6406h25.113l0.003906-59.215c0-0.90625 0.73438-1.6406 1.6406-1.6406s1.6406 0.73438 1.6406 1.6406l-0.003906 59.207h25.117c0.90625 0 1.6406-0.73438 1.6406-1.6406v-17.668c-0.60938-0.070312-1.2344-0.15234-1.8867-0.25391-8.0703-1.2305-15.34-7.5586-16.91-14.723-0.19531-0.88281 0.36719-1.7578 1.25-1.9531 0.88281-0.19141 1.7578 0.36328 1.9531 1.25 1.1172 5.0938 6.7344 11.043 14.203 12.18 1.0391 0.15625 1.9844 0.26172 2.8906 0.33984 3.6641-5.6055 6.4141-16.082 6.1562-23.539 2.7266 1.0625 6.1406 1.3047 9.2969 1.4297 0.42969 0.003906 0.88281-0.14844 1.2031-0.45703 0.32031-0.30859 0.50391-0.73438 0.50391-1.1797v-24.812c-0.007813-0.33984-0.11328-0.67188-0.3125-0.94922zm-69.977 23.125c-0.90625 0-1.6406-0.73438-1.6406-1.6406s0.73438-1.6406 1.6406-1.6406c10.512 0 13.91-11.625 13.91-17.254 0-0.90625 0.73437-1.6406 1.6406-1.6406s1.6406 0.73438 1.6406 1.6406c-0.003907 6.7031-4.2031 20.535-17.191 20.535zm46.461 0c-12.992 0-17.195-13.832-17.195-20.531 0-0.90625 0.73438-1.6406 1.6406-1.6406s1.6406 0.73438 1.6406 1.6406c0 5.6289 3.4023 17.254 13.914 17.254 0.90625 0 1.6406 0.73438 1.6406 1.6406 0 0.90234-0.73438 1.6367-1.6406 1.6367z"/>
</svg>