<svg xmlns="http://www.w3.org/2000/svg" xmlns:xlink="http://www.w3.org/1999/xlink" version="1.1" x="0px" y="0px" viewBox="0 0 66 82.5" enable-background="new 0 0 66 66" xml:space="preserve"><g><path d="M43.5,32.5C43.3,32.2,43,32,42.6,32h-5.5c-0.1,0.7-0.4,1.4-1,1.9c0.1,0.1,0.3,0.1,0.4,0.1h6.1c0.4,0,0.7-0.2,0.8-0.5H51   l7.6,7.6v12.5H43.1v2.8h1.5v6.3H6.5V65h52.1l0,0h1V32.5H43.5z M52.4,33.5h6.2v6.2L52.4,33.5z M45.7,62.7v-6.3h12.9v6.3H45.7z"/><path d="M23.4,57.2l8.6-3.9c0.8-0.4,1.4-1.1,1.7-2l2.9-10.9c1.6-1.1,2.6-2.9,2.6-4.9V35h-2.6c-0.5,0-1-0.2-1.4-0.5   c-1.4,0.5-3.1-0.1-3.7-1.6c-2.7-5.8-1.2-13.1-1.2-13.4c0.3-1.6,1.9-2.7,3.5-2.3c1.6,0.3,2.7,1.9,2.3,3.5c0,0.1-1.1,5.7,0.7,9.7   c0.1,0.2,0.2,0.4,0.2,0.6h2.1V20.4c0-3.3-2.7-6-6-6c-3.3,0-6,2.7-6,6v15c0,2.3,1.3,4.2,3.1,5.3l-2,7.7L21,51.7   c-1.5,0.7-2.2,2.5-1.5,4C20.2,57.2,21.9,57.8,23.4,57.2z"/><path d="M33.2,12.8c3.3,0,5.9-2.7,5.9-5.9c0-3.3-2.7-5.9-5.9-5.9c-3.3,0-5.9,2.7-5.9,5.9C27.3,10.2,29.9,12.8,33.2,12.8z"/><path d="M33.7,18.2c-1.1-0.2-2.1,0.5-2.4,1.6c-0.1,0.3-1.4,7.2,1.1,12.8c0.5,1,1.7,1.4,2.6,1c1-0.5,1.4-1.6,1-2.6   c-2-4.3-0.8-10.2-0.8-10.3C35.4,19.5,34.7,18.4,33.7,18.2z"/></g>
</svg>