<svg xmlns="http://www.w3.org/2000/svg" xmlns:xlink="http://www.w3.org/1999/xlink" version="1.1" x="0px" y="0px" viewBox="0 0 67 83.75" enable-background="new 0 0 67 67" xml:space="preserve"><g><path d="M47.64514,51.71027L8.18127,42.388c-0.89941-0.21094-1.82813-0.00488-2.55176,0.56738s-1.13867,1.42969-1.13867,2.35254   v19.6914h2v-19.6914c0-0.30762,0.13867-0.59277,0.37988-0.78418s0.5498-0.26074,0.85059-0.18848l39.46484,9.32227   c0.45313,0.10645,0.76953,0.50684,0.76953,0.97266v10.36914h2V54.63019C49.95569,53.23175,49.00549,52.03156,47.64514,51.71027z"/><path d="M57.37915,35.37067l-8.89996,0.72998l-15.46002-3.75l4.83002-2.66004c0.28998-0.15997,0.48999-0.44995,0.51996-0.78998   l0.68005-7.62c-0.04004,0.02002-0.09003,0.03003-0.14001,0.03998c-0.73004,0.16003-1.48004,0.24005-2.22003,0.24005   c-1.57996,0-3.10999-0.35004-4.54999-1.02002l-0.34998,4.48999l-6.22003,3.41998c-2.14001,1.17999-3.72998,3.21002-4.35999,5.57001   c-0.66998,2.51001-0.22998,5.17999,1.20001,7.34003c1.44,2.15997,3.72998,3.58997,6.28998,3.94l19.12,2.59998   c0.23004,0.03998,0.47003-0.02002,0.66998-0.14001l7.02002-4.46997v14.44c0,0.92999,0.35999,1.81,1.02002,2.46997   c0.66998,0.67004,1.53998,1.03003,2.47998,1.03003c0.19,0,0.39001-0.01001,0.58002-0.04999   c1.66998-0.26001,2.91998-1.81,2.91998-3.60004V40.11066C62.50916,37.36066,60.18915,35.16065,57.37915,35.37067z"/><path d="M12.15918,41.12067c3.82001,0,6.94-3.11005,6.94-6.94c0-3.83002-3.12-6.94-6.94-6.94c-3.83002,0-6.94,3.10999-6.94,6.94   C5.21918,38.01062,8.32916,41.12067,12.15918,41.12067z"/><circle cx="36.69397" cy="10.77911" r="1.77686"/><path d="M32.91919,18.70062c1.19,0.57001,2.45996,0.86005,3.76996,0.86005c0.60004,0,1.22003-0.07001,1.82001-0.20001   c4.04004-0.83002,6.97003-4.44,6.97003-8.58002c0-4.84003-3.94-8.77997-8.79004-8.77997   c-4.83997,0-8.77997,3.93994-8.77997,8.77997C27.90918,14.15064,29.87915,17.26062,32.91919,18.70062z M36.69397,7.00226   c2.08203,0,3.77637,1.69434,3.77637,3.77734c0,2.08203-1.69434,3.77637-3.77637,3.77637s-3.77637-1.69434-3.77637-3.77637   C32.9176,8.6966,34.61194,7.00226,36.69397,7.00226z"/></g>
</svg>