<svg xmlns="http://www.w3.org/2000/svg" version="1.1" viewBox="-5.0 -10.0 110.0 135.0">
 <g>
  <path d="m39.629 95.172c0-0.53125-1.5039-1.3828-4.3047-1.6992-0.27344 1.5859-0.52734 2.7969-0.67578 3.4727 3.082-0.22656 4.9805-1.125 4.9805-1.7734z"/>
  <path d="m35.445 82.109c-0.19922-0.03125-0.38672-0.082031-0.53516-0.15625-0.83594-0.41797-1.3945-1.4805-1.7461-2.7227-0.35547 1.2422-0.91406 2.3086-1.7461 2.7227-0.14844 0.074219-0.33594 0.12891-0.53906 0.15625 0.0625 6.6367 1.4453 13.238 1.8125 14.883 0.15234 0.003906 0.30469 0.007812 0.46875 0.007812 0.15625 0 0.30469-0.003906 0.45703-0.007812 0.33203-1.4766 1.7539-8.1445 1.8281-14.883z"/>
  <path d="m43.43 44.984c0.003906-0.011719 0.003906-0.023437 0.011718-0.039063 4.8477-9.9805 2.9336-15.391 0.51172-22.242-1.5781-4.4648-3.3711-9.5273-3.3711-16.66 0-0.027344 0.011719-0.050781 0.015625-0.074219-0.058594-1.043-1.2188-1.7188-2.2031-2.1055-1.4023-0.55078-3.3555-0.86328-5.3672-0.86328-0.29688 0-0.58984 0.007812-0.88281 0.023438-3.9219 10.98-0.63281 17.398 3.1875 24.809 2.4375 4.7344 5.2031 10.098 6.2422 17.266 0.003906 0.011719-0.003907 0.023438-0.003907 0.035156 0 0.011719 0.007813 0.023438 0.007813 0.035157s0.007813 0.023437 0.007813 0.035156c0.10547 0.30859 0.18359 0.53906 0.21875 0.65625 0.003906 0.015625 0.003906 0.03125 0.007812 0.050781 0.15625 0.24219 0.36719 0.41406 0.5625 0.44141 0.38672 0.046876 0.77734-0.45312 1.0352-1.3242 0.003906-0.015625 0.015625-0.027344 0.019532-0.042969z"/>
  <path d="m40.602 45.422c-0.99609-2.832-3.3438-8.3242-5.6016-8.918-0.47266-0.12109-0.92188 0.003906-1.3633 0.36719-2.3047 18.922 0 38.02 0.023437 38.211 0 0.007813-0.003906 0.015625-0.003906 0.023438 0 0.007812 0.003906 0.011719 0.003906 0.015625s0.003906 0.007812 0.003906 0.011718v0.003907c0 0.007812 0.003907 0.011719 0.003907 0.019531-0.054688 2.4062 0.57812 5.3477 1.6953 5.9062 0.058594 0.03125 0.17969 0.082031 0.35547 0.085938 0.074219-0.039063 0.15234-0.070313 0.24219-0.070313 0.027343 0 0.054687 0.011719 0.082031 0.015625 0.17578-0.058594 0.38672-0.16406 0.64062-0.35547 0.88672-1.3359 12.164-18.863 4.2383-34.363-0.17578-0.28906-0.28516-0.61328-0.32031-0.95312z"/>
  <path d="m30.969 81.059c1.1133-0.55469 1.7461-3.4883 1.6914-5.8906-0.089844-0.73047-2.3008-19.602-0.027344-38.34-0.42969-0.32812-0.85937-0.44141-1.3086-0.32422-2.3125 0.60938-4.7266 6.3633-5.6797 9.125-0.042969 0.21484-0.11328 0.42188-0.21094 0.61328v0.003906c-0.003906 0.003906-0.003906 0.007812-0.003906 0.007812-0.007813 0.015625-0.015626 0.03125-0.023438 0.046875-8.1211 15.582 3.4414 33.227 4.2656 34.445 0.75781 0.57422 1.1602 0.37891 1.2969 0.3125z"/>
  <path d="m35.254 35.535c1.6641 0.4375 3.1719 2.6328 4.3242 4.8945-1.2773-4.6523-3.2305-8.4492-5.1367-12.145-0.40234-0.78516-0.80078-1.5586-1.1836-2.3242-0.94922 2.1367-3.2812 7.4492-5.1211 12.105 0.88281-1.2617 1.875-2.25 2.9297-2.5312 0.51953-0.13672 1.2812-0.15625 2.0938 0.42578 0.8125-0.58203 1.5703-0.5625 2.0938-0.42578z"/>
  <path d="m24.559 45.73c0.023437-0.074219 0.054687-0.16016 0.089844-0.26953 0.023437-0.097657 0.050781-0.19141 0.050781-0.29297 0-0.015625 0.007812-0.03125 0.007812-0.046875s-0.003906-0.027344 0-0.046875c0.73828-4.043 7.1055-18.328 7.9805-20.285-2.9922-6.1914-4.8555-12.312-1.6211-21.688-2.8945 0.30859-5.3672 1.3047-5.3672 2.9375 0 7.1328-1.7891 12.195-3.3711 16.66-2.4258 6.8516-4.3398 12.266 0.51172 22.242 0.007812 0.011719 0.003906 0.027344 0.011718 0.039063 0.003907 0.015625 0.015626 0.023437 0.019532 0.039062 0.25781 0.87109 0.65234 1.3711 1.0352 1.3242 0.23828-0.027344 0.49609-0.28125 0.65234-0.61328z"/>
  <path d="m30.98 93.473c-2.793 0.31641-4.2891 1.168-4.2891 1.6992 0 0.64453 1.8906 1.543 4.9648 1.7695-0.15625-0.69531-0.40625-1.9062-0.67578-3.4688z"/>
  <path d="m58.281 45.727c0.023438-0.074218 0.054688-0.16016 0.089844-0.26953 0.023437-0.097656 0.050781-0.19141 0.050781-0.29297 0-0.015624 0.007813-0.027343 0.007813-0.042968s-0.003907-0.03125 0-0.046875c0.73828-4.043 7.1055-18.332 7.9805-20.285-2.9922-6.1914-4.8555-12.312-1.6211-21.688-2.8945 0.30859-5.3672 1.3047-5.3672 2.9375 0 7.1328-1.7891 12.195-3.3711 16.66-2.4258 6.8516-4.3398 12.266 0.51172 22.242 0.007812 0.011719 0.003906 0.027344 0.011719 0.039063 0.003906 0.015625 0.015625 0.023437 0.019531 0.039062 0.25781 0.87109 0.65625 1.3711 1.0352 1.3242 0.24219-0.027344 0.5-0.28125 0.65234-0.61719z"/>
  <path d="m69.172 82.109c-0.20312-0.03125-0.38672-0.082031-0.53516-0.15625-0.83594-0.41797-1.3945-1.4805-1.7461-2.7227-0.35547 1.2422-0.91406 2.3047-1.7461 2.7227-0.14844 0.074219-0.33984 0.12891-0.53906 0.15625 0.0625 6.6367 1.4453 13.238 1.8125 14.883 0.15234 0.003906 0.30859 0.007812 0.46875 0.007812 0.15625 0 0.30469-0.003906 0.45312-0.007812 0.33594-1.4766 1.7578-8.1445 1.832-14.883z"/>
  <path d="m77.156 44.988c0.003906-0.011719 0.003906-0.027343 0.011719-0.039062 4.8477-9.9805 2.9336-15.391 0.51172-22.246-1.5781-4.4648-3.3711-9.5273-3.3711-16.66 0-0.027344 0.011718-0.050781 0.015625-0.078125-0.058594-1.043-1.2188-1.7188-2.2031-2.1055-1.4023-0.54688-3.3555-0.85938-5.3672-0.85938-0.29688 0-0.58984 0.007812-0.88281 0.023438-3.9219 10.98-0.63281 17.398 3.1875 24.805 2.4375 4.7344 5.2031 10.102 6.2422 17.266 0.003907 0.011719-0.003906 0.023438-0.003906 0.035156 0 0.011719 0.007813 0.023438 0.007813 0.035156 0 0.011719 0.003906 0.019532 0.003906 0.03125 0.10938 0.3125 0.18359 0.54297 0.22266 0.66016 0.003906 0.015625 0.003906 0.035156 0.007812 0.050781 0.15625 0.23828 0.36719 0.41016 0.5625 0.44141 0.38281 0.046875 0.77734-0.45312 1.0352-1.3242 0.003906-0.011719 0.011719-0.023438 0.019531-0.035157z"/>
  <path d="m73.355 95.172c0-0.53125-1.5039-1.3828-4.3008-1.6992-0.27344 1.5859-0.52734 2.7969-0.67578 3.4727 3.0781-0.22656 4.9766-1.125 4.9766-1.7734z"/>
  <path d="m74.324 45.422c-0.99219-2.832-3.3477-8.3203-5.6055-8.918-0.46875-0.12109-0.91797 0.003906-1.3633 0.36719-2.3047 18.922 0 38.02 0.023437 38.211 0 0.007813-0.003906 0.015625-0.003906 0.019531 0 0.007813 0.003906 0.015626 0.003906 0.023438v0.007812 0.003907c0 0.007812 0.003906 0.015625 0.003906 0.023437-0.054687 2.4062 0.57422 5.3477 1.6914 5.9062 0.058593 0.03125 0.17969 0.082032 0.35547 0.085938 0.074218-0.039063 0.15234-0.070313 0.24219-0.070313 0.027344 0 0.054687 0.011719 0.082031 0.015625 0.17578-0.054687 0.38672-0.16406 0.63672-0.35547 0.88281-1.3281 12.164-18.863 4.2383-34.367-0.15625-0.29297-0.26562-0.61328-0.30469-0.95312z"/>
  <path d="m64.691 81.059c1.1133-0.55469 1.7461-3.4883 1.6914-5.8906-0.089843-0.73047-2.3008-19.602-0.027343-38.34-0.42969-0.32812-0.85938-0.44141-1.3086-0.32422-2.3164 0.60938-4.7305 6.3711-5.6797 9.1328-0.042969 0.21484-0.11328 0.41797-0.21094 0.60547v0.003906c-0.003906 0.003906-0.003906 0.007812-0.003906 0.007812-0.007813 0.015625-0.015625 0.03125-0.023438 0.046875-8.1211 15.578 3.4336 33.215 4.2656 34.445 0.76172 0.57422 1.168 0.37891 1.2969 0.3125z"/>
  <path d="m68.98 35.535c1.6641 0.4375 3.1719 2.6328 4.3242 4.8945-1.2773-4.6523-3.2305-8.4453-5.1328-12.145-0.40234-0.78516-0.80078-1.5586-1.1836-2.3242-0.94922 2.1367-3.2812 7.4492-5.1211 12.105 0.88281-1.2617 1.875-2.2539 2.9297-2.5312 0.52344-0.13672 1.2812-0.15625 2.0938 0.42578 0.80469-0.58203 1.5625-0.5625 2.0898-0.42578z"/>
  <path d="m64.707 93.473c-2.793 0.31641-4.293 1.168-4.293 1.6992 0 0.64453 1.8906 1.543 4.9648 1.7695-0.15234-0.69531-0.40234-1.9062-0.67188-3.4688z"/>
 </g>
</svg>