<svg xmlns="http://www.w3.org/2000/svg" xmlns:xlink="http://www.w3.org/1999/xlink" viewBox="0 0 66 82.5" version="1.1" x="0px" y="0px"><title>pullup, exercise, bar, sport, arms, muscle</title><desc>Created with Sketch.</desc><g stroke="none" stroke-width="1" fill="none" fill-rule="evenodd"><g transform="translate(-57.000000, -417.000000)" fill="#000000" fill-rule="nonzero"><path d="M67,426 L74.267884,426 C74.5565424,425.500662 75.0578605,425.129436 75.671202,425.027212 C76.5172554,424.886203 77.3276809,425.298514 77.7326769,426 L84.7083512,426 C86.1186176,424.755273 87.9711071,424 90,424 C92.0288929,424 93.8813824,424.755273 95.2916488,426 L102.267323,426 C102.672319,425.298514 103.482745,424.886203 104.328798,425.027212 C104.94214,425.129436 105.443458,425.500662 105.732116,426 L113,426 L113,420 C113,418.343146 114.343146,417 116,417 L118,417 C119.656854,417 121,418.343146 121,420 L121,481 L122,481 C122.552285,481 123,481.447715 123,482 C123,482.552285 122.552285,483 122,483 L58,483 C57.4477153,483 57,482.552285 57,482 C57,481.447715 57.4477153,481 58,481 L59,481 L59,420 C59,418.343146 60.3431458,417 62,417 L64,417 C65.6568542,417 67,418.343146 67,420 L67,426 Z M67,428 L67,481 L113,481 L113,428 L105.860921,428 L103.972788,439.328798 C103.898906,439.772089 103.677879,440.177577 103.345346,440.47988 C99.8821284,443.628259 96.0848524,445.447437 92,445.89223 L92,453.313784 L98.5787044,461.772119 C98.9355534,462.230925 99.0751526,462.822276 98.9611614,463.392232 L96.9611614,473.392232 C96.7445375,474.475352 95.6908872,475.177785 94.6077677,474.961161 C93.5246482,474.744537 92.8222147,473.690887 93.0388386,472.607768 L94.8593231,463.505345 L90,457.257644 L85.1406769,463.505345 L86.9611614,472.607768 C87.1777853,473.690887 86.4753518,474.744537 85.3922323,474.961161 C84.3091128,475.177785 83.2554625,474.475352 83.0388386,473.392232 L81.0388386,463.392232 C80.9248474,462.822276 81.0644466,462.230925 81.4212956,461.772119 L88,453.313784 L88,445.89223 C83.9151476,445.447437 80.1178716,443.628259 76.6546544,440.47988 C76.3221215,440.177577 76.1010939,439.772089 76.0272122,439.328798 L74.1390792,428 L67,428 Z M96.9297424,428 C97.6104229,429.176693 98,430.542851 98,432 C98,436.418278 94.418278,440 90,440 C85.581722,440 82,436.418278 82,432 C82,430.542851 82.3895771,429.176693 83.0702576,428 L78.1942542,428 L79.8560386,437.970707 C83.0187665,440.677052 86.3793584,442 90,442 C93.6206416,442 96.9812335,440.677052 100.143961,437.970707 L101.805746,428 L96.9297424,428 L96.9297424,428 Z M90,436 C92.209139,436 94,434.209139 94,432 C94,429.790861 92.209139,428 90,428 C87.790861,428 86,429.790861 86,432 C86,434.209139 87.790861,436 90,436 Z M119,420 C119,419.447715 118.552285,419 118,419 L116,419 C115.447715,419 115,419.447715 115,420 L115,481 L119,481 L119,420 Z M65,420 C65,419.447715 64.5522847,419 64,419 L62,419 C61.4477153,419 61,419.447715 61,420 L61,481 L65,481 L65,420 Z"/></g></g>
</svg>