<svg xmlns="http://www.w3.org/2000/svg" xmlns:xlink="http://www.w3.org/1999/xlink" version="1.1" x="0px" y="0px" viewBox="0 0 52 65" enable-background="new 0 0 52 52" xml:space="preserve"><g><path d="M40.1700363,36.9897461c1.6400146-0.2299805,2.7800293-1.75,2.539978-3.3898926l-1.3099976-9.1999512   c0.6500244-1.1899414,0.8000488-2.5700684,0.4100342-3.8598633c-0.7700195-2.5400391-3.5-4-6.2000122-3.3400879   L21.8200588,20.619873c-2.210022,0.5500488-3.7300415,2.5500488-3.7700195,4.7700195L4.29003,28.619873   c-1.6099854,0.380127-2.6199951,2-2.2399902,3.6101074c0.1900024,0.7797852,0.6599731,1.4399414,1.3499756,1.869873   c0.6799927,0.420166,1.4800415,0.5500488,2.2600098,0.3701172l17.0499878-4.0200195c0.5,0.0500488,1.0200195,0,1.5200195-0.1201172   l11.5499897-2.8598633l1,6.9799805c0.1099854,0.7897949,0.5200195,1.4899902,1.1700439,1.9699707   C38.4000168,36.7700195,38.9400558,36.9699707,39.5000534,37H2.0300202v2h48v-2h-10   C40.0800095,37,40.1200485,37,40.1700363,36.9897461z"/><path d="M46.0300217,21c2.2000122,0,4-1.7900391,4-4c0-2.2001953-1.7999878-4-4-4c-2.2099609,0-4,1.7998047-4,4   C42.0300217,19.2099609,43.8200607,21,46.0300217,21z"/></g>
</svg>