<svg xmlns="http://www.w3.org/2000/svg" xmlns:xlink="http://www.w3.org/1999/xlink" version="1.1" x="0px" y="0px" viewBox="0 0 100 125" style="enable-background:new 0 0 100 100;" xml:space="preserve"><g><circle cx="28.5" cy="31.1" r="4.9"/><path d="M51.7,62.1h4.6H65v-2.2H45.8c0.3,0.5,0.6,1.2,1,2.2H51.7z"/><path d="M26.9,37.1c-1.4,0.3-2.4,1.7-2.1,3.2l0.7,3.3c1.1-4,1-3.8,1-3.8c1-3.7,7-2.7,7.1,1.1c0,0,0,0,0,0c0,0,0,0.1,0,0.1l-1.5,5.5   h0l5.1,1c-1.4-6.5-1.3-8.3-3.9-10C31,35.9,29.1,36.6,26.9,37.1z"/><path d="M31.1,50.8L31.1,50.8c2.2,0.3,6.8,0.9,7.4,1l0,0.1c2.1,0.3,4,0.6,5.6,0.8v-3.3c-7.1-1.5-6.5-1.5-10.6-2.3l-1.7-0.4l0-0.2   c1.5-5.4,1.6-5.5,1.5-6.2c-0.4-2-2.1-2.2-3-2.5c-0.7-0.2-1.6,0-2.2,0.3c-1.4,0.9-1.3,1.9-2.6,6.8l0,0c-0.2,0.6-0.3,1.1-0.4,1.6   c-0.5,1.7,0.7,3.4,2.4,3.7l0,0c0.2,0,0.4,0.1,0.5,0.1l0,0C28.7,50.4,28.6,50.4,31.1,50.8z"/><path d="M81.4,50.3c-0.5,0-1.6,0-4.5,0.1c-4.2,0-13.3,0-32.5,0v0.8c32.6,0,36.5-0.1,37-0.1V50.3z"/><polygon points="8.9,78.3 12.6,78.3 24,62.4 20.2,62.4  "/><circle cx="83.3" cy="67.3" r="1.7"/><path d="M15.2,59.9v2.2c7.5,0,3.4,0,20,0c-3.6-1.2-4.3-1.3-5.4-2.2H15.2z"/><path d="M81.8,75.3v3.2h3v-3.2C83.9,75.5,82.8,75.5,81.8,75.3z"/><path d="M84.9,59.6c-4.9-1.1-9.5,2.7-9.5,7.7c0,4.9,4.6,8.7,9.5,7.7c3.6-0.8,6.2-4,6.2-7.7C91.1,63.6,88.5,60.4,84.9,59.6z    M83.3,69.3c-1.1,0-2.1-0.9-2.1-2.1s0.9-2.1,2.1-2.1s2.1,0.9,2.1,2.1S84.4,69.3,83.3,69.3z"/><polygon points="52.4,62.4 63.7,78.3 67.5,78.3 56.1,62.4  "/><path d="M39.1,56.2l-0.9-4.1c-5.8-0.9-10.5-1.5-10.7-1.5c0,0-0.4-0.1-0.5-0.1c2.3,10.6,0.5,8.5,13.4,12.9c0,0.1,7.8,14.8,7.9,14.9   h5.4C43.8,55.9,46.4,59.2,39.1,56.2z"/><path d="M81.8,47v12.3c1-0.2,2.1-0.2,3,0v-6.4v-2.5V24h-3v20.5L71.1,23.7h10.3h3.4v-2.2H70h-1.3h-1.3v2.2h2.4L81.8,47z"/></g>
</svg>