<svg xmlns="http://www.w3.org/2000/svg" xmlns:xlink="http://www.w3.org/1999/xlink" version="1.1" x="0px" y="0px" viewBox="0 0 100 125" style="enable-background:new 0 0 100 100;" xml:space="preserve"><g><path d="M50.3,23.6c2.6,0,4.7,2.1,4.7,4.7c0,2.6-2.1,4.8-4.7,4.8c-2.6,0-4.8-2.1-4.8-4.8C45.6,25.8,47.7,23.6,50.3,23.6z"/><path d="M55.8,17.7l0.3-1.6l2.3,0.4c-0.3,1.4-0.2,1-0.3,1.6L55.8,17.7z M60.7,21.8c-0.2,1.3-1.9,1.7-2.7,0.6   c-0.5-0.7-0.3-1,0.3-3.9l0,0c0.2-1,0-0.1,0.9-5c0.3-1.8,2.9-1.5,2.9,0.3c0,0.2-0.9,5.1-1,5.3l0,0L60.7,21.8z M61.9,17.2l1.8,0.3   l-0.3,1.6l-1.8-0.3C61.8,18,61.7,18.4,61.9,17.2z M41.6,16.5l2.3-0.4l0.3,1.6l-2.3,0.4C41.9,17.8,41.7,16.9,41.6,16.5z M40.7,13.5   c0.9,5.1,0.8,4.3,0.9,5l0,0l0.5,2.8c0.1,0.8-0.4,1.6-1.2,1.7l0,0c-0.4,0.1-0.8,0-1.1-0.2c-0.7-0.5-0.6-0.8-1.1-3.7l0,0   c-0.3-1.4-0.1-0.4-0.9-5C37.5,12.1,40.4,11.6,40.7,13.5z M38.1,17.2c0.2,1.1,0.1,0.8,0.3,1.6l-1.8,0.3l-0.3-1.6L38.1,17.2z    M28,20.7l-2.3,0.4l-0.3-1.6l2.3-0.4C27.8,19.7,27.7,19.4,28,20.7z M28.9,23.7c-0.9-4.8-0.7-3.9-0.9-5l0,0c0-0.2-0.5-2.8-0.5-3   c0-1.8,2.6-2,2.9-0.3l0.5,2.8l0,0c0.2,1.3,0.1,0.3,0.9,5C32.1,25.1,29.2,25.7,28.9,23.7z M33.1,19.8l-1.5,0.3l-0.2-0.9l-0.1-0.7   l1.6-0.3C32.9,18.3,33.1,19.7,33.1,19.8z M65.2,30.5L57.7,40l-1.3,13.9l0,0c3.6,17,2.4,9.2,5,33.4l-3.9,0.4   c-5.8-24.9-4.3-17.7-6.7-32.5h-0.9c-2.4,14.8-1,7.6-6.7,32.5l-3.9-0.4l2.2-20l2.8-13.4l0,0l-1.5-13.3l-6.3-8l-1.6-2l-1.9-14.6   l2.5-0.6L38.1,28l0,0l6.6,7.1c6.4-2,4.8-1.9,10.6-0.1l6.5-6.9l2.3-10.6l0-0.1l0,0l0.4-1.9l2.5,0.6C66.4,21.4,65.9,25.1,65.2,30.5z    M68.4,20.1l-1.5-0.3c0.1-0.6,0-0.3,0.2-1.6l1.6,0.3C68.6,19.3,68.7,18.9,68.4,20.1z M71.1,23.7c-0.1,0.8-0.9,1.3-1.7,1.2   c-0.8-0.1-1.3-0.9-1.2-1.7c0.9-4.7,0.7-3.7,0.9-5l0,0c0.5-2.9,0.5-3.3,1.1-3.7c0.3-0.2,0.5-0.3,0.8-0.3c0.1,0,0.2,0,0.3,0   c0.7,0.1,1.2,0.7,1.2,1.5c0,0.2-0.5,2.8-0.5,3l0,0C71.9,19.5,72.1,18.6,71.1,23.7z M72,20.7c0-0.2,0.3-1.4,0.3-1.6l2.3,0.4   l-0.3,1.6L72,20.7z"/></g>
</svg>